<?xml version="1.0" encoding="utf-8"?>
<!-- Generator: Adobe Illustrator 14.0.0, SVG Export Plug-In . SVG Version: 6.00 Build 43363)  -->
<!DOCTYPE svg PUBLIC "-//W3C//DTD SVG 1.1//EN" "http://www.w3.org/Graphics/SVG/1.1/DTD/svg11.dtd">
<svg version="1.1" id="Calque_1" xmlns="http://www.w3.org/2000/svg" xmlns:xlink="http://www.w3.org/1999/xlink" x="0px" y="0px"
	 width="177px" height="50px" viewBox="0 0 177 50" enable-background="new 0 0 177 50" xml:space="preserve">
<g>
	<path fill="#1A7BB9" stroke="#1A7BB9" stroke-width="0.25" d="M68.786,9.951c0.54,0.499,1.106,1.604,0.718,2.633
		c1.87,1.838,4.057,3.36,5.145,5.981c2.955,0.213,2.68,4.106,2.871,7.777c0.133,2.514,0.969,4.775,1.196,6.818
		c0.363,3.248-0.808,6.67-2.272,7.896c-1.264,1.06-3.262,1.275-5.146,1.437c0.608-0.946,0.513-2.599,0.72-3.947
		c0.391-0.522,1.279-0.558,1.674-0.956c1.879-1.912,0.406-5.806,0-8.854c-0.25-1.877-0.137-4.244-0.6-5.624
		c-0.314-0.935-1.81-1.698-2.393-2.512c-0.737-1.029-1.266-2.207-2.154-3.232c-0.93-1.072-1.859-1.992-2.751-2.631
		c-0.201-0.198-0.097-0.703-0.12-1.078c-7.193-1.188-14.072-3.67-22.492-2.87c-0.797-0.838-2.201-1.937-4.068-2.034
		c-3.201-0.167-5.57,2.163-5.383,5.743c-4,2.341-7.622,5.059-10.528,8.495c-2.279,0.725-4.813,1.443-7.417,2.154
		c-2.336,0.637-5.426,1.115-6.82,2.752c-0.307,0.354-0.546,1.094-0.957,1.674c-0.39,0.55-0.93,0.947-1.077,1.436
		c-0.17,0.563-0.08,1.313-0.239,2.033c-0.337,1.525-0.703,3.708-0.479,6.344c1.295,1.854,5.507,0.791,8.375,1.074
		c0.013,1.621,0.659,2.611,1.196,3.708C10.421,44.068,3.21,45.828,2.388,41.18c-0.397-2.24-0.164-6.42,0.12-8.732
		c0.093-0.77,0.321-2.159,0.597-2.991c0.292-0.881,1.082-1.256,1.556-2.032c0.257-0.425,0.233-1.027,0.479-1.438
		c2.104-3.498,7.41-4.316,11.724-5.623c1.504-0.455,3.268-0.711,4.427-1.316c0.877-0.458,1.684-1.627,2.513-2.393
		c4.054-3.742,8.813-7.402,15.074-8.974c2.667-0.669,5.611-1.023,8.973-1.077C55.751,6.476,61.756,9.108,68.786,9.951z"/>
	<path fill="#1A7BB9" stroke="#1A7BB9" stroke-width="0.25" d="M38.876,11.387c4.394-0.239,4.22,6.472,0.12,6.46
		C35.006,17.835,34.661,11.616,38.876,11.387z"/>
	<path fill="#1A7BB9" stroke="#1A7BB9" stroke-width="0.25" d="M45.098,32.441c-0.502,2.986,1.225,8.947-1.436,9.451
		c-2.891,0.549-2.273-3.371-2.273-6.222c0-2.183-0.397-5.022,0.24-6.222c0.436-0.815,1.737-1.256,2.514-1.674
		c0.998-0.541,1.707-0.797,2.75-1.438c-1.188-1.801-2.85-3.132-4.427-4.545c-1.075,1.456-2.077,2.763-3.11,4.065
		c-1.674,0-5.142-0.195-8.254-0.599c-0.154-3.175,1.813-1.354,6.699-1.674c2.891-2.573,3.016-8.073,7.059-6.938
		c1.771,0.496,3.27,2.91,4.547,4.187c1.357,1.358,3.863,3.071,4.187,4.547c0.64,2.908-2.305,3.648-4.187,4.666
		C47.745,30.943,46.413,31.857,45.098,32.441z"/>
	<path fill="#1A7BB9" stroke="#1A7BB9" stroke-width="0.25" d="M26.076,29.811c5.656-0.595,9.742,3.262,10.527,7.896
		c1.205,7.113-5.088,12.177-11.246,11.126c-4.128-0.705-8.732-4.739-7.896-10.888C18.1,33.243,21.411,30.303,26.076,29.811z
		 M20.691,40.816c1.461,6.759,12.043,6.451,12.801-0.717c0.455-4.301-2.994-7.524-6.938-7.178
		C22.755,33.257,19.755,36.486,20.691,40.816z"/>
	<path fill="#1A7BB9" stroke="#1A7BB9" stroke-width="0.25" d="M58.497,29.811c5.67-0.566,10.003,3.369,10.528,8.496
		c0.678,6.611-5.135,11.689-11.485,10.526c-4.069-0.744-7.733-4.366-7.776-9.452C49.719,34.066,53.374,30.322,58.497,29.811z
		 M54.789,34.717c-3.721,3.723-1.186,11.151,4.666,11.126c2.416-0.012,5.777-1.845,6.341-5.146c0.854-5.012-3.017-8.053-6.819-7.774
		C57.134,33.057,55.736,33.768,54.789,34.717z"/>
</g>
<g>
	<path fill="#1A7BB9" d="M104.979,16.132V19.2c-0.035,1.365-0.051,2.388-0.051,3.07c0,2.094-0.728,3.908-2.179,5.44
		c-1.249,1.34-3.358,2.011-6.331,2.011c-0.456,0-1.115-0.013-1.977-0.037h-1.875c-1.619,0-2.812,0.195-3.569,0.586
		c-0.963,0.582-1.444,1.631-1.444,3.142v6.063h17.375v5.297H82.514V32.168c0-2.41,0.691-4.328,2.076-5.754
		c1.385-1.425,3.217-2.136,5.496-2.136h5.344c3.006,0,4.508-1.279,4.508-3.836v-3.105c0-2.581-1.418-3.872-4.254-3.872H82.563V8.204
		h14.412c2.465,0,4.406,0.646,5.825,1.938C104.252,11.603,104.979,13.599,104.979,16.132z"/>
	<path fill="#1A7BB9" d="M133.141,29.172h-16.438v6.176c0,2.727,1.47,4.092,4.408,4.092h13.017v5.332h-14.385
		c-2.481,0-4.416-0.621-5.802-1.863c-1.521-1.387-2.277-3.348-2.277-5.881V16.46c0-2.532,0.675-4.523,2.025-5.972
		c1.352-1.449,3.217-2.174,5.597-2.174h14.842v5.333h-13.067c-2.903,0-4.355,1.34-4.355,4.019v6.248h16.438v5.258H133.141z"/>
	<path fill="#1A7BB9" d="M175.387,44.954h-4.813V16.205l-8.891,25.605c-0.861,2.51-2.067,3.765-3.621,3.765
		c-0.931,0-1.688-0.365-2.279-1.097c-0.354-0.487-0.734-1.303-1.141-2.446l-9.093-25.828v28.75h-4.813V13.137
		c0-1.389,0.381-2.54,1.141-3.453c0.762-0.914,1.813-1.371,3.167-1.371c2.042,0,3.442,1.133,4.203,3.397l8.765,25.899l8.912-25.938
		c0.797-2.289,2.182-3.434,4.155-3.434c1.383,0,2.446,0.47,3.19,1.407c0.742,0.938,1.111,2.136,1.111,3.597v31.711L175.387,44.954
		L175.387,44.954z"/>
</g>
</svg>
